<svg xmlns="http://www.w3.org/2000/svg" xmlns:xlink="http://www.w3.org/1999/xlink" width="2720" zoomAndPan="magnify" viewBox="0 0 2040 476.999988" height="636" preserveAspectRatio="xMidYMid meet" version="1.0"><defs><clipPath id="ed9c7a7abe"><path d="M 0 297.28125 L 483.863281 297.28125 L 483.863281 476.617188 L 0 476.617188 Z M 0 297.28125 " clip-rule="nonzero"></path></clipPath><clipPath id="2e4b0e3477"><path d="M 397.203125 476.433594 C 382.847656 476.433594 368.988281 472.871094 356.691406 466.335938 C 344.378906 459.808594 333.660156 450.289062 325.601562 438.398438 C 305.546875 408.742188 273.734375 393.921875 241.917969 393.921875 C 210.09375 393.921875 178.277344 408.742188 158.226562 438.398438 C 150.1875 450.289062 139.457031 459.808594 127.160156 466.335938 C 114.847656 472.871094 100.976562 476.433594 86.636719 476.433594 C 35.417969 476.433594 0 434.324219 0 389.421875 C 0 372.574219 5.09375 355.511719 16.097656 339.953125 C 30.941406 363.390625 56.753906 379.792969 88.886719 379.792969 C 103.230469 379.792969 117.097656 376.230469 129.410156 369.691406 C 141.710938 363.167969 152.4375 353.648438 160.476562 341.753906 C 180.53125 312.101562 212.34375 297.28125 244.171875 297.28125 C 275.984375 297.28125 307.800781 312.101562 327.851562 341.753906 C 335.914062 353.648438 346.632812 363.167969 358.941406 369.691406 C 371.242188 376.230469 385.101562 379.792969 399.453125 379.792969 C 430.027344 379.792969 454.96875 364.785156 470.109375 343.140625 C 506.605469 399.875 466.265625 476.433594 397.203125 476.433594 Z M 397.203125 476.433594 " clip-rule="nonzero"></path></clipPath><clipPath id="310684f0d5"><path d="M 0 0.28125 L 483.863281 0.28125 L 483.863281 179.617188 L 0 179.617188 Z M 0 0.28125 " clip-rule="nonzero"></path></clipPath><clipPath id="413de458c5"><path d="M 397.203125 179.433594 C 382.847656 179.433594 368.988281 175.871094 356.691406 169.335938 C 344.378906 162.808594 333.660156 153.289062 325.601562 141.398438 C 305.546875 111.742188 273.734375 96.921875 241.917969 96.921875 C 210.09375 96.921875 178.277344 111.742188 158.226562 141.398438 C 150.1875 153.289062 139.457031 162.808594 127.160156 169.335938 C 114.847656 175.871094 100.976562 179.433594 86.636719 179.433594 C 35.417969 179.433594 0 137.324219 0 92.421875 C 0 75.574219 5.09375 58.511719 16.097656 42.953125 C 30.941406 66.390625 56.753906 82.792969 88.886719 82.792969 C 103.230469 82.792969 117.097656 79.230469 129.410156 72.691406 C 141.710938 66.167969 152.4375 56.648438 160.476562 44.753906 C 180.53125 15.101562 212.34375 0.28125 244.171875 0.28125 C 275.984375 0.28125 307.800781 15.101562 327.851562 44.753906 C 335.914062 56.648438 346.632812 66.167969 358.941406 72.691406 C 371.242188 79.230469 385.101562 82.792969 399.453125 82.792969 C 430.027344 82.792969 454.96875 67.785156 470.109375 46.140625 C 506.605469 102.875 466.265625 179.433594 397.203125 179.433594 Z M 397.203125 179.433594 " clip-rule="nonzero"></path></clipPath><clipPath id="fe12960d7f"><rect x="0" width="484" y="0" height="180"></rect></clipPath><clipPath id="51377a81e1"><path d="M 15.746094 96.332031 L 470.234375 96.332031 L 470.234375 380.367188 L 15.746094 380.367188 Z M 15.746094 96.332031 " clip-rule="nonzero"></path></clipPath><clipPath id="57423e53dc"><path d="M 470.234375 343.597656 C 455.085938 365.207031 430.136719 380.195312 399.550781 380.195312 C 385.191406 380.195312 371.324219 376.632812 359.019531 370.109375 C 346.703125 363.59375 335.984375 354.089844 327.917969 342.214844 C 307.855469 312.605469 276.03125 297.808594 244.203125 297.808594 C 212.363281 297.808594 180.535156 312.605469 160.476562 342.214844 C 152.433594 354.089844 141.699219 363.59375 129.394531 370.109375 C 117.078125 376.632812 103.203125 380.195312 88.855469 380.195312 C 56.707031 380.195312 30.78125 363.648438 15.925781 340.246094 C 16.398438 339.578125 16.894531 338.90625 17.386719 338.246094 L 172.726562 131.121094 C 190.039062 108.039062 215.988281 96.515625 241.949219 96.515625 C 267.898438 96.515625 293.851562 108.039062 311.164062 131.121094 L 466.511719 338.246094 C 467.828125 340.003906 469.070312 341.796875 470.234375 343.597656 Z M 470.234375 343.597656 " clip-rule="nonzero"></path></clipPath><clipPath id="c8c6ba28c0"><path d="M 0.839844 0.480469 L 455.234375 0.480469 L 455.234375 284.367188 L 0.839844 284.367188 Z M 0.839844 0.480469 " clip-rule="nonzero"></path></clipPath><clipPath id="60a8e8c8fe"><path d="M 455.234375 247.597656 C 440.085938 269.207031 415.136719 284.195312 384.550781 284.195312 C 370.191406 284.195312 356.324219 280.632812 344.019531 274.109375 C 331.703125 267.59375 320.984375 258.089844 312.917969 246.214844 C 292.855469 216.605469 261.03125 201.808594 229.203125 201.808594 C 197.363281 201.808594 165.535156 216.605469 145.476562 246.214844 C 137.433594 258.089844 126.699219 267.59375 114.394531 274.109375 C 102.078125 280.632812 88.203125 284.195312 73.855469 284.195312 C 41.707031 284.195312 15.78125 267.648438 0.925781 244.246094 C 1.398438 243.578125 1.894531 242.90625 2.386719 242.246094 L 157.726562 35.121094 C 175.039062 12.039062 200.988281 0.515625 226.949219 0.515625 C 252.898438 0.515625 278.851562 12.039062 296.164062 35.121094 L 451.511719 242.246094 C 452.828125 244.003906 454.070312 245.796875 455.234375 247.597656 Z M 455.234375 247.597656 " clip-rule="nonzero"></path></clipPath><clipPath id="b9c9acd206"><rect x="0" width="456" y="0" height="285"></rect></clipPath><clipPath id="315a1896a1"><path d="M 2.109375 0 L 486.609375 0 L 486.609375 343.5 L 2.109375 343.5 Z M 2.109375 0 " clip-rule="nonzero"></path></clipPath><clipPath id="c506d2d573"><path d="M 174.90625 34.804688 L 19.535156 241.96875 C 7.433594 257.941406 2.109375 275.851562 2.109375 293.277344 C 2.109375 310.214844 6.949219 326.191406 15.660156 340.226562 C 16.144531 339.742188 16.628906 338.773438 17.113281 338.289062 L 172.488281 131.125 C 189.910156 107.894531 216.050781 96.277344 241.703125 96.277344 C 267.839844 96.277344 293.976562 107.894531 310.917969 131.125 L 466.292969 338.289062 C 467.742188 339.742188 469.195312 341.679688 470.164062 343.613281 C 490.492188 314.574219 492.914062 274.398438 468.710938 241.96875 L 313.339844 34.804688 C 295.914062 11.570312 270.261719 -0.046875 244.121094 -0.046875 C 217.984375 -0.046875 192.332031 11.570312 174.90625 34.804688 Z M 174.90625 34.804688 " clip-rule="nonzero"></path></clipPath><clipPath id="1607797558"><path d="M 628.492188 57.207031 L 2039.242188 57.207031 L 2039.242188 419.457031 L 628.492188 419.457031 Z M 628.492188 57.207031 " clip-rule="nonzero"></path></clipPath></defs><g clip-path="url(#ed9c7a7abe)"><g clip-path="url(#2e4b0e3477)"><g transform="matrix(1, 0, 0, 1, 0, 297)"><g clip-path="url(#fe12960d7f)"><g clip-path="url(#310684f0d5)"><g clip-path="url(#413de458c5)"><path fill="#1A1A1A" d="M 0 0.28125 L 483.863281 0.28125 L 483.863281 179.433594 L 0 179.433594 Z M 0 0.28125 " fill-opacity="1" fill-rule="nonzero"></path></g></g></g></g></g></g><g clip-path="url(#51377a81e1)"><g clip-path="url(#57423e53dc)"><g transform="matrix(1, 0, 0, 1, 15, 96)"><g clip-path="url(#b9c9acd206)"><g clip-path="url(#c8c6ba28c0)"><g clip-path="url(#60a8e8c8fe)"><path fill="#6A1B9A" d="M 0.925781 0.515625 L 455.234375 0.515625 L 455.234375 284.1875 L 0.925781 284.1875 Z M 0.925781 0.515625 " fill-opacity="1" fill-rule="nonzero"></path></g></g></g></g></g></g><g clip-path="url(#315a1896a1)"><g clip-path="url(#c506d2d573)"><path fill="#FF7518" d="M 2.109375 0 L 2.109375 343.5 L 486.609375 343.5 L 486.609375 0 Z M 2.109375 0 " fill-opacity="1" fill-rule="nonzero"></path></g></g><g clip-path="url(#1607797558)"><path fill="#3D1A5B" d="M 732.46875 124.085938 C 716.078125 124.039062 700.773438 126.222656 686.601562 130.578125 C 672.433594 134.9375 659 141.648438 646.3125 150.675781 C 642.957031 153.246094 641.085938 156.035156 640.640625 159.089844 C 640.253906 162.144531 641.207031 165.367188 643.476562 168.769531 L 658.78125 192.621094 C 661.351562 196.277344 664.140625 198.292969 667.195312 198.679688 C 670.246094 199.113281 673.46875 198.027344 676.921875 195.457031 C 684.03125 189.964844 691.828125 185.605469 700.335938 182.335938 C 708.835938 179.066406 717.644531 177.363281 726.808594 177.277344 C 746.300781 177.144531 760.640625 182.117188 769.835938 192.234375 C 779.035156 202.394531 783.621094 218.570312 783.523438 240.851562 L 783.523438 243.6875 L 730.765625 243.6875 C 697.5 243.820312 672.214844 251.316406 654.90625 266.101562 C 637.597656 280.921875 628.871094 302.152344 628.785156 329.792969 C 628.871094 358.835938 637.851562 380.984375 655.726562 396.238281 C 673.652344 411.496094 699.757812 419.21875 734.167969 419.304688 C 770.320312 419.136719 797.777344 409.839844 816.703125 391.398438 C 835.582031 373.003906 845.09375 346.402344 845.210938 311.652344 L 845.210938 236.3125 C 845.042969 199.125 835.316406 171.136719 816.039062 152.34375 C 796.765625 133.550781 768.90625 124.132812 732.457031 124.085938 Z M 734.167969 366.113281 C 720.167969 366.0625 709.449219 362.890625 701.90625 356.480469 C 694.363281 350.070312 690.574219 340.609375 690.488281 328.09375 C 690.621094 315.574219 694.929688 306.027344 703.390625 299.449219 C 711.886719 292.871094 723.835938 289.554688 739.273438 289.503906 L 783.523438 289.503906 L 783.523438 306.546875 C 783.570312 326.644531 779.601562 341.597656 771.621094 351.410156 C 763.597656 361.222656 751.128906 366.148438 734.167969 366.101562 Z M 1071.679688 352.507812 C 1069.109375 348.839844 1066.320312 346.933594 1063.269531 346.753906 C 1060.214844 346.582031 1056.945312 347.933594 1053.539062 350.808594 C 1047.613281 355.914062 1041.335938 359.75 1034.699219 362.273438 C 1028.070312 364.84375 1020.925781 366.113281 1013.285156 366.113281 C 995.109375 366.246094 981.324219 361.1875 971.910156 350.941406 C 962.53125 340.691406 957.789062 324.605469 957.742188 302.589844 L 957.742188 240.800781 C 957.789062 218.785156 962.230469 202.699219 971.125 192.449219 C 980.023438 182.203125 993.140625 177.144531 1010.449219 177.277344 C 1018.078125 177.328125 1024.921875 178.242188 1030.980469 180.113281 C 1037.089844 181.984375 1042.496094 184.652344 1047.289062 188.042969 C 1050.945312 190.664062 1054.265625 191.835938 1057.234375 191.664062 C 1060.152344 191.496094 1062.90625 189.699219 1065.429688 186.34375 L 1081.300781 164.277344 C 1083.871094 160.839844 1085.007812 157.519531 1084.703125 154.332031 C 1084.4375 151.195312 1082.738281 148.445312 1079.597656 146.136719 C 1070.789062 139.027344 1060.238281 133.585938 1047.9375 129.785156 C 1035.640625 125.992188 1021.820312 124.109375 1006.480469 124.074219 C 971.164062 124.121094 943.957031 133.488281 924.898438 152.234375 C 905.839844 170.976562 896.257812 198.800781 896.039062 235.683594 L 896.039062 307.101562 C 896.257812 344.035156 906.117188 371.929688 925.5625 390.855469 C 945.007812 409.734375 972.515625 419.246094 1008.179688 419.28125 C 1023.789062 419.230469 1038.042969 416.792969 1050.992188 412.085938 C 1063.894531 407.332031 1075.324219 400.667969 1085.257812 392.125 C 1088.097656 389.550781 1089.664062 386.679688 1089.929688 383.492188 C 1090.230469 380.355469 1089.230469 377.167969 1086.960938 374.03125 L 1071.65625 352.496094 Z M 1286.5 368.949219 C 1285.332031 364.722656 1283.316406 362.105469 1280.394531 361.019531 C 1277.519531 359.933594 1274.070312 360.101562 1270.0625 361.585938 C 1266.355469 363.023438 1262.566406 364.121094 1258.679688 364.90625 C 1254.757812 365.691406 1250.785156 366.125 1246.816406 366.125 C 1233.476562 366.078125 1223.316406 362.46875 1216.421875 355.273438 C 1209.53125 348.078125 1206.042969 337.53125 1206.007812 323.578125 L 1206.007812 184.085938 L 1274.589844 184.085938 C 1283.183594 184 1287.539062 179.632812 1287.625 171.097656 L 1287.625 143.894531 C 1287.539062 135.347656 1283.183594 130.992188 1274.589844 130.90625 L 1206.007812 130.90625 L 1206.007812 70.242188 C 1206.007812 65.96875 1204.871094 62.746094 1202.6875 60.527344 C 1200.46875 58.339844 1197.230469 57.207031 1193.007812 57.207031 L 1157.304688 57.207031 C 1153.082031 57.207031 1149.84375 58.339844 1147.625 60.527344 C 1145.441406 62.746094 1144.316406 65.96875 1144.316406 70.242188 L 1144.316406 130.894531 L 1120.515625 130.894531 C 1111.921875 130.976562 1107.566406 135.335938 1107.480469 143.882812 L 1107.480469 171.085938 C 1107.566406 179.632812 1111.933594 183.988281 1120.515625 184.074219 L 1144.316406 184.074219 L 1144.316406 323.554688 C 1144.316406 355.332031 1152.246094 379.230469 1168.082031 395.238281 C 1183.957031 411.277344 1207.757812 419.304688 1239.453125 419.304688 C 1248.867188 419.304688 1257.546875 418.605469 1265.609375 417.214844 C 1273.636719 415.78125 1280.78125 413.644531 1287.054688 410.808594 C 1290.714844 409.105469 1293.066406 406.75 1294.082031 403.832031 C 1295.132812 400.863281 1295.035156 397.554688 1293.863281 393.847656 Z M 1546.96875 143.929688 C 1546.96875 139.65625 1545.835938 136.433594 1543.652344 134.199219 C 1541.429688 132.015625 1538.207031 130.894531 1533.972656 130.894531 L 1499.957031 130.894531 C 1495.734375 130.894531 1492.5 132.027344 1490.277344 134.199219 C 1488.09375 136.421875 1486.96875 139.65625 1486.96875 143.929688 L 1486.96875 312.269531 C 1487.019531 330.625 1483.347656 344.179688 1475.988281 352.992188 C 1468.574219 361.804688 1457.109375 366.160156 1441.585938 366.113281 C 1426.066406 366.160156 1414.597656 361.792969 1407.1875 352.992188 C 1399.824219 344.179688 1396.15625 330.625 1396.203125 312.269531 L 1396.203125 143.929688 C 1396.203125 139.65625 1395.070312 136.433594 1392.898438 134.199219 C 1390.675781 132.015625 1387.441406 130.894531 1383.21875 130.894531 L 1347.515625 130.894531 C 1343.289062 130.894531 1340.054688 132.027344 1337.835938 134.199219 C 1335.648438 136.421875 1334.527344 139.65625 1334.527344 143.929688 L 1334.527344 315.105469 C 1334.613281 348.9375 1343.726562 374.753906 1361.867188 392.496094 C 1379.957031 410.238281 1406.332031 419.183594 1441.042969 419.304688 C 1475.492188 419.171875 1501.695312 410.238281 1519.742188 392.496094 C 1537.785156 374.753906 1546.863281 348.9375 1546.996094 315.105469 L 1546.996094 143.929688 Z M 1700.402344 124.085938 C 1684.011719 124.039062 1668.707031 126.222656 1654.539062 130.578125 C 1640.367188 134.9375 1626.933594 141.648438 1614.246094 150.675781 C 1610.890625 153.246094 1609.023438 156.035156 1608.574219 159.089844 C 1608.175781 162.144531 1609.140625 165.367188 1611.410156 168.769531 L 1626.714844 192.621094 C 1629.285156 196.277344 1632.074219 198.292969 1635.128906 198.679688 C 1638.183594 199.113281 1641.40625 198.027344 1644.855469 195.457031 C 1651.964844 189.964844 1659.761719 185.605469 1668.273438 182.335938 C 1676.769531 179.066406 1685.582031 177.363281 1694.742188 177.277344 C 1714.234375 177.144531 1728.574219 182.117188 1737.769531 192.234375 C 1746.96875 202.394531 1751.554688 218.570312 1751.457031 240.851562 L 1751.457031 243.6875 L 1698.699219 243.6875 C 1665.4375 243.820312 1640.148438 251.316406 1622.839844 266.101562 C 1605.535156 280.921875 1596.808594 302.152344 1596.722656 329.804688 C 1596.808594 358.847656 1605.785156 380.996094 1623.664062 396.25 C 1641.585938 411.507812 1667.695312 419.230469 1702.105469 419.316406 C 1738.253906 419.148438 1765.714844 409.855469 1784.640625 391.410156 C 1803.515625 373.015625 1813.027344 346.414062 1813.148438 311.664062 L 1813.148438 236.324219 C 1812.980469 199.136719 1803.25 171.148438 1783.976562 152.355469 C 1764.699219 133.5625 1736.84375 124.148438 1700.390625 124.097656 Z M 1702.105469 366.113281 C 1688.105469 366.0625 1677.386719 362.890625 1669.84375 356.480469 C 1662.296875 350.070312 1658.507812 340.609375 1658.421875 328.09375 C 1658.554688 315.574219 1662.878906 306.027344 1671.328125 299.449219 C 1679.824219 292.871094 1691.773438 289.554688 1707.210938 289.503906 L 1751.472656 289.503906 L 1751.472656 306.546875 C 1751.519531 326.644531 1747.546875 341.597656 1739.570312 351.410156 C 1731.542969 361.222656 1719.074219 366.148438 1702.117188 366.101562 Z M 1870.792969 399.460938 C 1870.878906 408.054688 1875.234375 412.414062 1883.78125 412.496094 L 1919.496094 412.496094 C 1928.042969 412.414062 1932.398438 408.054688 1932.484375 399.460938 L 1932.484375 228.867188 C 1932.398438 194.382812 1946.738281 177.195312 1975.5625 177.289062 C 1980.96875 177.289062 1986.328125 177.992188 1991.566406 179.34375 C 1996.839844 180.695312 2001.898438 182.660156 2006.738281 185.234375 C 2010.707031 187.285156 2014.101562 188.019531 2017.019531 187.453125 C 2019.894531 186.835938 2022.34375 184.617188 2024.300781 180.695312 L 2037.335938 157.496094 C 2039.074219 154.054688 2039.605469 150.738281 2038.902344 147.648438 C 2038.203125 144.558594 2036.199219 141.972656 2032.796875 139.933594 C 2014.75 129.300781 1993.605469 124.027344 1969.308594 124.109375 C 1936.695312 124.195312 1912.144531 133.222656 1895.621094 151.230469 C 1879.097656 169.191406 1870.816406 195.660156 1870.769531 230.578125 L 1870.769531 399.484375 Z M 1870.792969 399.460938 " fill-opacity="1" fill-rule="evenodd"></path></g></svg>