<svg xmlns="http://www.w3.org/2000/svg" xmlns:xlink="http://www.w3.org/1999/xlink" width="1882" zoomAndPan="magnify" viewBox="0 0 1411.5 362.250002" height="483" preserveAspectRatio="xMidYMid meet" version="1.0"><defs><linearGradient id="g" x1="40" y1="150" x2="1380" y2="215" gradientUnits="userSpaceOnUse"><stop offset="0" stop-color="#FB5423"></stop><stop offset="1" stop-color="#1FEFFF"></stop></linearGradient><clipPath id="5cf3a7983f"><path d="M 1.207031 0 L 1409.792969 0 L 1409.792969 361.5 L 1.207031 361.5 Z M 1.207031 0 " clip-rule="nonzero"></path></clipPath><clipPath id="b9099f8963"><path d="M 1.207031 0 L 1409.042969 0 L 1409.042969 361.5 L 1.207031 361.5 Z M 1.207031 0 " clip-rule="nonzero"></path></clipPath></defs><g clip-path="url(#b9099f8963)"><path fill="url(#g)" d="M 104.96875 66.742188 C 88.613281 66.691406 73.339844 68.875 59.199219 73.222656 C 45.058594 77.570312 31.652344 84.265625 18.992188 93.277344 C 15.644531 95.84375 13.777344 98.625 13.332031 101.671875 C 12.945312 104.71875 13.898438 107.933594 16.160156 111.332031 L 31.433594 135.132812 C 34 138.78125 36.78125 140.792969 39.828125 141.179688 C 42.878906 141.613281 46.09375 140.527344 49.539062 137.964844 C 56.632812 132.484375 64.414062 128.132812 72.90625 124.871094 C 81.386719 121.605469 90.179688 119.90625 99.320312 119.824219 C 118.773438 119.691406 133.082031 124.652344 142.261719 134.746094 C 151.4375 144.890625 156.015625 161.03125 155.917969 183.265625 L 155.917969 186.09375 L 103.269531 186.09375 C 70.074219 186.226562 44.839844 193.707031 27.566406 208.460938 C 10.296875 223.253906 1.585938 244.441406 1.503906 272.023438 C 1.585938 301.003906 10.546875 323.105469 28.386719 338.332031 C 46.273438 353.554688 72.328125 361.265625 106.667969 361.347656 C 142.742188 361.179688 170.144531 351.90625 189.03125 333.5 C 207.871094 315.144531 217.359375 288.597656 217.480469 253.921875 L 217.480469 178.734375 C 217.3125 141.625 207.605469 113.691406 188.367188 94.9375 C 169.132812 76.183594 141.332031 66.789062 104.957031 66.742188 Z M 106.667969 308.265625 C 92.695312 308.21875 82 305.050781 74.472656 298.65625 C 66.941406 292.257812 63.160156 282.816406 63.078125 270.324219 C 63.210938 257.835938 67.507812 248.308594 75.953125 241.742188 C 84.433594 235.179688 96.355469 231.867188 111.761719 231.816406 L 155.917969 231.816406 L 155.917969 248.824219 C 155.96875 268.878906 152.003906 283.804688 144.042969 293.597656 C 136.035156 303.390625 123.589844 308.304688 106.667969 308.253906 Z M 443.480469 294.691406 C 440.914062 291.03125 438.132812 289.128906 435.085938 288.945312 C 432.039062 288.777344 428.773438 290.128906 425.378906 292.996094 C 419.464844 298.089844 413.199219 301.917969 406.574219 304.4375 C 399.964844 307.003906 392.832031 308.265625 385.207031 308.265625 C 367.066406 308.398438 353.3125 303.351562 343.917969 293.125 C 334.558594 282.902344 329.824219 266.84375 329.777344 244.875 L 329.777344 183.214844 C 329.824219 161.246094 334.257812 145.191406 343.132812 134.964844 C 352.011719 124.738281 365.105469 119.691406 382.378906 119.824219 C 389.988281 119.871094 396.820312 120.785156 402.867188 122.652344 C 408.960938 124.519531 414.355469 127.183594 419.136719 130.566406 C 422.789062 133.179688 426.101562 134.351562 429.0625 134.179688 C 431.980469 134.011719 434.726562 132.21875 437.242188 128.871094 L 453.082031 106.851562 C 455.648438 103.417969 456.777344 100.105469 456.476562 96.925781 C 456.214844 93.792969 454.515625 91.046875 451.382812 88.746094 C 442.589844 81.652344 432.0625 76.21875 419.789062 72.425781 C 407.515625 68.644531 393.722656 66.765625 378.414062 66.730469 C 343.171875 66.777344 316.019531 76.125 297.003906 94.832031 C 277.984375 113.535156 268.417969 141.300781 268.203125 178.109375 L 268.203125 249.378906 C 268.417969 286.238281 278.261719 314.074219 297.664062 332.960938 C 317.070312 351.796875 344.519531 361.289062 380.113281 361.324219 C 395.6875 361.277344 409.910156 358.84375 422.835938 354.148438 C 435.710938 349.402344 447.117188 342.753906 457.03125 334.222656 C 459.863281 331.660156 461.429688 328.792969 461.695312 325.613281 C 461.996094 322.480469 460.996094 319.300781 458.730469 316.167969 L 443.457031 294.679688 Z M 657.859375 311.097656 C 656.691406 306.882812 654.679688 304.269531 651.761719 303.183594 C 648.898438 302.101562 645.453125 302.269531 641.453125 303.75 C 637.753906 305.183594 633.972656 306.28125 630.09375 307.0625 C 626.179688 307.84375 622.21875 308.28125 618.253906 308.28125 C 604.945312 308.230469 594.800781 304.628906 587.925781 297.449219 C 581.046875 290.273438 577.566406 279.746094 577.53125 265.820312 L 577.53125 126.617188 L 645.96875 126.617188 C 654.546875 126.53125 658.894531 122.171875 658.976562 113.65625 L 658.976562 86.507812 C 658.894531 77.980469 654.546875 73.632812 645.96875 73.546875 L 577.53125 73.546875 L 577.53125 13.007812 C 577.53125 8.746094 576.398438 5.527344 574.21875 3.3125 C 572 1.132812 568.773438 0 564.558594 0 L 528.929688 0 C 524.710938 0 521.484375 1.132812 519.269531 3.3125 C 517.089844 5.527344 515.96875 8.746094 515.96875 13.007812 L 515.96875 73.535156 L 492.214844 73.535156 C 483.640625 73.617188 479.292969 77.96875 479.207031 86.496094 L 479.207031 113.644531 C 479.292969 122.171875 483.652344 126.519531 492.214844 126.605469 L 515.96875 126.605469 L 515.96875 265.796875 C 515.96875 297.511719 523.882812 321.359375 539.683594 337.332031 C 555.523438 353.339844 579.277344 361.347656 610.90625 361.347656 C 620.300781 361.347656 628.960938 360.652344 637.007812 359.265625 C 645.019531 357.832031 652.148438 355.699219 658.414062 352.871094 C 662.0625 351.171875 664.410156 348.824219 665.421875 345.90625 C 666.46875 342.945312 666.375 339.644531 665.207031 335.945312 Z M 917.789062 86.542969 C 917.789062 82.28125 916.65625 79.0625 914.476562 76.835938 C 912.261719 74.65625 909.042969 73.535156 904.816406 73.535156 L 870.875 73.535156 C 866.65625 73.535156 863.429688 74.667969 861.214844 76.835938 C 859.035156 79.050781 857.914062 82.28125 857.914062 86.542969 L 857.914062 254.535156 C 857.960938 272.855469 854.300781 286.382812 846.953125 295.175781 C 839.554688 303.96875 828.113281 308.316406 812.625 308.265625 C 797.132812 308.316406 785.691406 303.957031 778.296875 295.175781 C 770.949219 286.382812 767.285156 272.855469 767.335938 254.535156 L 767.335938 86.542969 C 767.335938 82.277344 766.203125 79.0625 764.035156 76.835938 C 761.816406 74.65625 758.589844 73.535156 754.375 73.535156 L 718.746094 73.535156 C 714.53125 73.535156 711.300781 74.667969 709.085938 76.835938 C 706.90625 79.050781 705.785156 82.277344 705.785156 86.542969 L 705.785156 257.363281 C 705.871094 291.128906 714.964844 316.890625 733.066406 334.597656 C 751.121094 352.304688 777.441406 361.230469 812.082031 361.347656 C 846.457031 361.21875 872.609375 352.304688 890.617188 334.597656 C 908.621094 316.890625 917.679688 291.128906 917.8125 257.363281 L 917.8125 86.542969 Z M 1070.90625 66.742188 C 1054.546875 66.691406 1039.273438 68.875 1025.132812 73.222656 C 1010.992188 77.570312 997.585938 84.265625 984.925781 93.277344 C 981.578125 95.84375 979.710938 98.625 979.265625 101.671875 C 978.867188 104.71875 979.832031 107.933594 982.097656 111.332031 L 997.371094 135.132812 C 999.933594 138.78125 1002.71875 140.792969 1005.765625 141.179688 C 1008.8125 141.613281 1012.027344 140.527344 1015.472656 137.964844 C 1022.566406 132.484375 1030.347656 128.132812 1038.839844 124.871094 C 1047.320312 121.605469 1056.113281 119.90625 1065.253906 119.824219 C 1084.707031 119.691406 1099.015625 124.652344 1108.195312 134.746094 C 1117.375 144.890625 1121.953125 161.03125 1121.855469 183.265625 L 1121.855469 186.09375 L 1069.207031 186.09375 C 1036.011719 186.226562 1010.777344 193.707031 993.503906 208.460938 C 976.230469 223.253906 967.523438 244.441406 967.4375 272.035156 C 967.523438 301.015625 976.484375 323.117188 994.324219 338.34375 C 1012.210938 353.570312 1038.261719 361.277344 1072.601562 361.363281 C 1108.675781 361.191406 1136.078125 351.917969 1154.964844 333.511719 C 1173.804688 315.15625 1183.296875 288.609375 1183.417969 253.933594 L 1183.417969 178.746094 C 1183.25 141.636719 1173.539062 113.703125 1154.304688 94.949219 C 1135.066406 76.195312 1107.269531 66.800781 1070.890625 66.753906 Z M 1072.601562 308.265625 C 1058.628906 308.21875 1047.933594 305.050781 1040.40625 298.65625 C 1032.878906 292.257812 1029.097656 282.816406 1029.011719 270.324219 C 1029.144531 257.835938 1033.457031 248.308594 1041.886719 241.742188 C 1050.367188 235.179688 1062.292969 231.867188 1077.699219 231.816406 L 1121.867188 231.816406 L 1121.867188 248.824219 C 1121.914062 268.878906 1117.953125 283.804688 1109.992188 293.597656 C 1101.980469 303.390625 1089.539062 308.304688 1072.613281 308.253906 Z M 1240.945312 341.546875 C 1241.027344 350.125 1245.375 354.472656 1253.902344 354.554688 L 1289.546875 354.554688 C 1298.074219 354.472656 1302.421875 350.125 1302.503906 341.546875 L 1302.503906 171.304688 C 1302.421875 136.890625 1316.730469 119.738281 1345.492188 119.835938 C 1350.890625 119.835938 1356.238281 120.535156 1361.464844 121.882812 C 1366.730469 123.230469 1371.777344 125.195312 1376.605469 127.761719 C 1380.570312 129.808594 1383.953125 130.542969 1386.867188 129.976562 C 1389.734375 129.363281 1392.179688 127.148438 1394.132812 123.230469 L 1407.140625 100.082031 C 1408.875 96.648438 1409.40625 93.335938 1408.707031 90.253906 C 1408.007812 87.167969 1406.007812 84.59375 1402.609375 82.554688 C 1384.605469 71.945312 1363.5 66.679688 1339.253906 66.765625 C 1306.710938 66.851562 1282.210938 75.859375 1265.71875 93.832031 C 1249.230469 111.753906 1240.96875 138.167969 1240.917969 173.015625 L 1240.917969 341.570312 Z M 1240.945312 341.546875 " fill-opacity="1" fill-rule="evenodd"></path></g></svg>