<svg xmlns="http://www.w3.org/2000/svg" xmlns:xlink="http://www.w3.org/1999/xlink" width="2720" zoomAndPan="magnify" viewBox="0 0 2040 478.499986" height="638" preserveAspectRatio="xMidYMid meet" version="1.0"><defs><clipPath id="c278589f37"><path d="M 1.066406 0 L 2038.933594 0 L 2038.933594 478 L 1.066406 478 Z M 1.066406 0 " clip-rule="nonzero"></path></clipPath><clipPath id="1bc483dfa1"><path d="M 629 58.484375 L 2038.179688 58.484375 L 2038.179688 420.359375 L 629 420.359375 Z M 629 58.484375 " clip-rule="nonzero"></path></clipPath><clipPath id="54a1b9bf83"><path d="M 3.171875 0 L 487 0 L 487 343.140625 L 3.171875 343.140625 Z M 3.171875 0 " clip-rule="nonzero"></path></clipPath><clipPath id="e53a163b41"><path d="M 175.789062 34.769531 L 20.578125 241.714844 C 8.488281 257.671875 3.171875 275.5625 3.171875 292.96875 C 3.171875 309.894531 8.007812 325.847656 16.710938 339.871094 C 17.191406 339.386719 17.675781 338.421875 18.160156 337.9375 L 173.371094 130.988281 C 190.777344 107.78125 216.886719 96.175781 242.515625 96.175781 C 268.625 96.175781 294.734375 107.78125 311.660156 130.988281 L 466.871094 337.9375 C 468.320312 339.386719 469.769531 341.320312 470.738281 343.257812 C 491.046875 314.246094 493.464844 274.113281 469.285156 241.714844 L 314.074219 34.769531 C 296.667969 11.558594 271.042969 -0.046875 244.933594 -0.046875 C 218.820312 -0.046875 193.195312 11.558594 175.789062 34.769531 Z M 175.789062 34.769531 " clip-rule="nonzero"></path></clipPath><clipPath id="ff90b3c38b"><path d="M 1.066406 298.308594 L 484.425781 298.308594 L 484.425781 477.457031 L 1.066406 477.457031 Z M 1.066406 298.308594 " clip-rule="nonzero"></path></clipPath><clipPath id="bc098be262"><path d="M 397.851562 477.277344 C 383.515625 477.277344 369.667969 473.714844 357.382812 467.1875 C 345.085938 460.667969 334.378906 451.160156 326.324219 439.277344 C 306.292969 409.65625 274.511719 394.847656 242.730469 394.847656 C 210.9375 394.847656 179.15625 409.65625 159.125 439.277344 C 151.09375 451.160156 140.378906 460.667969 128.089844 467.1875 C 115.792969 473.714844 101.9375 477.277344 87.609375 477.277344 C 36.445312 477.277344 1.066406 435.210938 1.066406 390.351562 C 1.066406 373.523438 6.152344 356.480469 17.144531 340.9375 C 31.976562 364.351562 57.757812 380.734375 89.859375 380.734375 C 104.1875 380.734375 118.042969 377.175781 130.339844 370.644531 C 142.625 364.125 153.34375 354.621094 161.375 342.738281 C 181.40625 313.113281 213.1875 298.308594 244.980469 298.308594 C 276.761719 298.308594 308.542969 313.113281 328.574219 342.738281 C 336.625 354.621094 347.332031 364.125 359.632812 370.644531 C 371.917969 377.175781 385.761719 380.734375 400.101562 380.734375 C 430.644531 380.734375 455.558594 365.742188 470.683594 344.121094 C 507.140625 400.796875 466.84375 477.277344 397.851562 477.277344 Z M 397.851562 477.277344 " clip-rule="nonzero"></path></clipPath><clipPath id="64cebfb22e"><path d="M 0.0664062 0.308594 L 483.425781 0.308594 L 483.425781 179.339844 L 0.0664062 179.339844 Z M 0.0664062 0.308594 " clip-rule="nonzero"></path></clipPath><clipPath id="5319462931"><path d="M 396.851562 179.277344 C 382.515625 179.277344 368.667969 175.714844 356.382812 169.1875 C 344.085938 162.667969 333.378906 153.160156 325.324219 141.277344 C 305.292969 111.65625 273.511719 96.847656 241.730469 96.847656 C 209.9375 96.847656 178.15625 111.65625 158.125 141.277344 C 150.09375 153.160156 139.378906 162.667969 127.089844 169.1875 C 114.792969 175.714844 100.9375 179.277344 86.609375 179.277344 C 35.445312 179.277344 0.0664062 137.210938 0.0664062 92.351562 C 0.0664062 75.523438 5.152344 58.480469 16.144531 42.9375 C 30.976562 66.351562 56.757812 82.734375 88.859375 82.734375 C 103.1875 82.734375 117.042969 79.175781 129.339844 72.644531 C 141.625 66.125 152.34375 56.621094 160.375 44.738281 C 180.40625 15.113281 212.1875 0.308594 243.980469 0.308594 C 275.761719 0.308594 307.542969 15.113281 327.574219 44.738281 C 335.625 56.621094 346.332031 66.125 358.632812 72.644531 C 370.917969 79.175781 384.761719 82.734375 399.101562 82.734375 C 429.644531 82.734375 454.558594 67.742188 469.683594 46.121094 C 506.140625 102.796875 465.84375 179.277344 396.851562 179.277344 Z M 396.851562 179.277344 " clip-rule="nonzero"></path></clipPath><clipPath id="e8c755a574"><rect x="0" width="484" y="0" height="180"></rect></clipPath></defs><g clip-path="url(#1bc483dfa1)"><path fill="#0a1130" d="M 732.769531 125.296875 C 716.394531 125.246094 701.105469 127.429688 686.949219 131.78125 C 672.792969 136.136719 659.375 142.839844 646.703125 151.859375 C 643.351562 154.425781 641.480469 157.210938 641.035156 160.261719 C 640.648438 163.3125 641.601562 166.53125 643.871094 169.933594 L 659.15625 193.757812 C 661.726562 197.410156 664.511719 199.425781 667.5625 199.808594 C 670.613281 200.242188 673.832031 199.160156 677.28125 196.589844 C 684.382812 191.105469 692.171875 186.75 700.671875 183.484375 C 709.160156 180.214844 717.960938 178.515625 727.113281 178.433594 C 746.585938 178.300781 760.910156 183.265625 770.097656 193.371094 C 779.285156 203.523438 783.867188 219.679688 783.769531 241.9375 L 783.769531 244.773438 L 731.066406 244.773438 C 697.835938 244.90625 672.578125 252.390625 655.289062 267.164062 C 637.996094 281.96875 629.28125 303.175781 629.195312 330.789062 C 629.28125 359.796875 638.25 381.921875 656.105469 397.164062 C 674.011719 412.40625 700.09375 420.121094 734.46875 420.207031 C 770.578125 420.035156 798.011719 410.753906 816.914062 392.328125 C 835.773438 373.953125 845.273438 347.378906 845.394531 312.667969 L 845.394531 237.40625 C 845.226562 200.257812 835.507812 172.296875 816.253906 153.523438 C 796.996094 134.75 769.167969 125.34375 732.753906 125.296875 Z M 734.46875 367.070312 C 720.480469 367.019531 709.773438 363.851562 702.238281 357.449219 C 694.703125 351.046875 690.917969 341.59375 690.832031 329.089844 C 690.964844 316.585938 695.269531 307.046875 703.722656 300.476562 C 712.210938 293.90625 724.148438 290.589844 739.566406 290.542969 L 783.769531 290.542969 L 783.769531 307.566406 C 783.820312 327.640625 779.851562 342.582031 771.882812 352.382812 C 763.863281 362.1875 751.410156 367.105469 734.46875 367.058594 Z M 1071.625 353.480469 C 1069.058594 349.816406 1066.273438 347.910156 1063.222656 347.730469 C 1060.171875 347.558594 1056.90625 348.910156 1053.503906 351.78125 C 1047.585938 356.878906 1041.316406 360.714844 1034.683594 363.234375 C 1028.0625 365.804688 1020.925781 367.070312 1013.292969 367.070312 C 995.136719 367.203125 981.367188 362.148438 971.960938 351.914062 C 962.59375 341.675781 957.855469 325.605469 957.804688 303.613281 L 957.804688 241.890625 C 957.855469 219.898438 962.292969 203.824219 971.175781 193.589844 C 980.0625 183.351562 993.167969 178.300781 1010.460938 178.433594 C 1018.082031 178.480469 1024.917969 179.398438 1030.96875 181.265625 C 1037.070312 183.132812 1042.472656 185.800781 1047.257812 189.1875 C 1050.914062 191.804688 1054.226562 192.972656 1057.195312 192.804688 C 1060.113281 192.636719 1062.859375 190.839844 1065.382812 187.488281 L 1081.238281 165.445312 C 1083.804688 162.011719 1084.9375 158.695312 1084.636719 155.511719 C 1084.371094 152.375 1082.671875 149.628906 1079.535156 147.324219 C 1070.734375 140.222656 1060.195312 134.785156 1047.910156 130.988281 C 1035.625 127.199219 1021.816406 125.320312 1006.492188 125.285156 C 971.214844 125.332031 944.035156 134.6875 924.996094 153.414062 C 905.960938 172.136719 896.386719 199.929688 896.167969 236.777344 L 896.167969 308.121094 C 896.386719 345.015625 906.238281 372.878906 925.660156 391.785156 C 945.085938 410.644531 972.5625 420.144531 1008.191406 420.179688 C 1023.785156 420.132812 1038.023438 417.699219 1050.960938 412.996094 C 1063.851562 408.246094 1075.269531 401.589844 1085.191406 393.050781 C 1088.023438 390.484375 1089.59375 387.613281 1089.859375 384.429688 C 1090.160156 381.296875 1089.160156 378.113281 1086.890625 374.980469 L 1071.601562 353.46875 Z M 1286.222656 369.902344 C 1285.054688 365.683594 1283.039062 363.066406 1280.121094 361.980469 C 1277.253906 360.894531 1273.804688 361.066406 1269.800781 362.546875 C 1266.097656 363.980469 1262.3125 365.078125 1258.429688 365.863281 C 1254.511719 366.648438 1250.546875 367.082031 1246.578125 367.082031 C 1233.253906 367.03125 1223.101562 363.429688 1216.21875 356.242188 C 1209.332031 349.054688 1205.847656 338.515625 1205.8125 324.578125 L 1205.8125 185.234375 L 1274.324219 185.234375 C 1282.90625 185.148438 1287.261719 180.785156 1287.34375 172.257812 L 1287.34375 145.082031 C 1287.261719 136.546875 1282.90625 132.191406 1274.324219 132.109375 L 1205.8125 132.109375 L 1205.8125 71.507812 C 1205.8125 67.238281 1204.679688 64.019531 1202.496094 61.800781 C 1200.277344 59.621094 1197.046875 58.484375 1192.828125 58.484375 L 1157.160156 58.484375 C 1152.941406 58.484375 1149.710938 59.621094 1147.492188 61.800781 C 1145.308594 64.019531 1144.1875 67.238281 1144.1875 71.507812 L 1144.1875 132.097656 L 1120.410156 132.097656 C 1111.824219 132.179688 1107.472656 136.53125 1107.390625 145.070312 L 1107.390625 172.246094 C 1107.472656 180.785156 1111.839844 185.136719 1120.410156 185.21875 L 1144.1875 185.21875 L 1144.1875 324.554688 C 1144.1875 356.300781 1152.109375 380.175781 1167.929688 396.164062 C 1183.785156 412.1875 1207.5625 420.207031 1239.222656 420.207031 C 1248.628906 420.207031 1257.296875 419.507812 1265.351562 418.121094 C 1273.371094 416.683594 1280.507812 414.550781 1286.777344 411.71875 C 1290.429688 410.015625 1292.78125 407.667969 1293.796875 404.75 C 1294.84375 401.78125 1294.746094 398.476562 1293.578125 394.777344 Z M 1546.421875 145.117188 C 1546.421875 140.851562 1545.285156 137.628906 1543.105469 135.398438 C 1540.886719 133.21875 1537.667969 132.097656 1533.433594 132.097656 L 1499.457031 132.097656 C 1495.238281 132.097656 1492.003906 133.230469 1489.785156 135.398438 C 1487.605469 137.617188 1486.484375 140.851562 1486.484375 145.117188 L 1486.484375 313.28125 C 1486.53125 331.621094 1482.867188 345.160156 1475.511719 353.960938 C 1468.109375 362.765625 1456.652344 367.117188 1441.148438 367.070312 C 1425.640625 367.117188 1414.1875 362.753906 1406.785156 353.960938 C 1399.429688 345.160156 1395.765625 331.621094 1395.8125 313.28125 L 1395.8125 145.117188 C 1395.8125 140.847656 1394.679688 137.628906 1392.507812 135.398438 C 1390.289062 133.21875 1387.058594 132.097656 1382.839844 132.097656 L 1347.171875 132.097656 C 1342.953125 132.097656 1339.722656 133.230469 1337.503906 135.398438 C 1335.320312 137.617188 1334.199219 140.847656 1334.199219 145.117188 L 1334.199219 316.113281 C 1334.285156 349.910156 1343.386719 375.703125 1361.507812 393.425781 C 1379.582031 411.152344 1405.929688 420.085938 1440.605469 420.207031 C 1475.015625 420.074219 1501.191406 411.152344 1519.21875 393.425781 C 1537.246094 375.703125 1546.3125 349.910156 1546.445312 316.113281 L 1546.445312 145.117188 Z M 1699.691406 125.296875 C 1683.320312 125.246094 1668.03125 127.429688 1653.875 131.78125 C 1639.71875 136.136719 1626.300781 142.839844 1613.628906 151.859375 C 1610.277344 154.425781 1608.40625 157.210938 1607.960938 160.261719 C 1607.5625 163.3125 1608.527344 166.53125 1610.792969 169.933594 L 1626.082031 193.757812 C 1628.652344 197.410156 1631.4375 199.425781 1634.488281 199.808594 C 1637.539062 200.242188 1640.757812 199.160156 1644.203125 196.589844 C 1651.304688 191.105469 1659.09375 186.75 1667.597656 183.484375 C 1676.085938 180.214844 1684.886719 178.515625 1694.039062 178.433594 C 1713.511719 178.300781 1727.835938 183.265625 1737.023438 193.371094 C 1746.210938 203.523438 1750.792969 219.679688 1750.695312 241.9375 L 1750.695312 244.773438 L 1697.992188 244.773438 C 1664.761719 244.90625 1639.503906 252.390625 1622.210938 267.164062 C 1604.921875 281.96875 1596.203125 303.175781 1596.121094 330.800781 C 1596.203125 359.8125 1605.175781 381.9375 1623.03125 397.175781 C 1640.9375 412.417969 1667.015625 420.132812 1701.394531 420.21875 C 1737.503906 420.050781 1764.933594 410.765625 1783.839844 392.339844 C 1802.699219 373.964844 1812.199219 347.390625 1812.320312 312.679688 L 1812.320312 237.417969 C 1812.152344 200.269531 1802.433594 172.308594 1783.175781 153.535156 C 1763.921875 134.761719 1736.09375 125.355469 1699.679688 125.308594 Z M 1701.394531 367.070312 C 1687.40625 367.019531 1676.699219 363.851562 1669.164062 357.449219 C 1661.628906 351.046875 1657.839844 341.59375 1657.757812 329.089844 C 1657.890625 316.585938 1662.207031 307.046875 1670.648438 300.476562 C 1679.136719 293.90625 1691.070312 290.589844 1706.492188 290.542969 L 1750.707031 290.542969 L 1750.707031 307.566406 C 1750.753906 327.640625 1746.789062 342.582031 1738.820312 352.382812 C 1730.800781 362.1875 1718.34375 367.105469 1701.40625 367.058594 Z M 1869.90625 400.382812 C 1869.988281 408.96875 1874.34375 413.320312 1882.878906 413.40625 L 1918.558594 413.40625 C 1927.09375 413.320312 1931.445312 408.96875 1931.53125 400.382812 L 1931.53125 229.964844 C 1931.445312 195.515625 1945.769531 178.347656 1974.5625 178.445312 C 1979.964844 178.445312 1985.320312 179.144531 1990.550781 180.492188 C 1995.820312 181.84375 2000.871094 183.808594 2005.707031 186.378906 C 2009.675781 188.429688 2013.0625 189.164062 2015.980469 188.597656 C 2018.851562 187.980469 2021.296875 185.761719 2023.25 181.84375 L 2036.273438 158.671875 C 2038.007812 155.234375 2038.539062 151.917969 2037.839844 148.832031 C 2037.140625 145.746094 2035.140625 143.164062 2031.738281 141.125 C 2013.714844 130.503906 1992.589844 125.234375 1968.316406 125.320312 C 1935.738281 125.402344 1911.214844 134.421875 1894.707031 152.414062 C 1878.203125 170.355469 1869.929688 196.796875 1869.882812 231.675781 L 1869.882812 400.40625 Z M 1869.90625 400.382812 " fill-opacity="1" fill-rule="evenodd"></path></g><g clip-path="url(#54a1b9bf83)"><g clip-path="url(#e53a163b41)"><path fill="#0a1130" d="M 3.171875 0 L 3.171875 343.140625 L 487.164062 343.140625 L 487.164062 0 Z M 3.171875 0 " fill-opacity="1" fill-rule="nonzero"></path></g></g><g clip-path="url(#ff90b3c38b)"><g clip-path="url(#bc098be262)"><g transform="matrix(1, 0, 0, 1, 1, 298)"><g clip-path="url(#e8c755a574)"><g clip-path="url(#64cebfb22e)"><g clip-path="url(#5319462931)"><path fill="#0a1130" d="M 0.0664062 0.308594 L 483.425781 0.308594 L 483.425781 179.277344 L 0.0664062 179.277344 Z M 0.0664062 0.308594 " fill-opacity="1" fill-rule="nonzero"></path></g></g></g></g></g></g></svg>