<svg xmlns="http://www.w3.org/2000/svg" xmlns:xlink="http://www.w3.org/1999/xlink" width="649" zoomAndPan="magnify" viewBox="0 0 486.75 476.999988" height="636" preserveAspectRatio="xMidYMid meet" version="1.0"><defs><clipPath id="2a6590d6c1"><path d="M 0 0.121094 L 486.5 0.121094 L 486.5 476.875 L 0 476.875 Z M 0 0.121094 " clip-rule="nonzero"></path></clipPath><clipPath id="a39cdc6381"><path d="M 0 297.25 L 483.617188 297.25 L 483.617188 476.492188 L 0 476.492188 Z M 0 297.25 " clip-rule="nonzero"></path></clipPath><clipPath id="f6aff129ce"><path d="M 397 476.3125 C 382.652344 476.3125 368.800781 472.75 356.507812 466.21875 C 344.203125 459.695312 333.488281 450.183594 325.433594 438.292969 C 305.390625 408.65625 273.59375 393.84375 241.796875 393.84375 C 209.984375 393.84375 178.1875 408.65625 158.144531 438.292969 C 150.109375 450.183594 139.386719 459.695312 127.09375 466.21875 C 114.789062 472.75 100.925781 476.3125 86.589844 476.3125 C 35.398438 476.3125 0 434.226562 0 389.34375 C 0 372.507812 5.089844 355.453125 16.089844 339.902344 C 30.925781 363.328125 56.726562 379.722656 88.839844 379.722656 C 103.175781 379.722656 117.039062 376.15625 129.34375 369.625 C 141.636719 363.101562 152.359375 353.589844 160.394531 341.703125 C 180.4375 312.0625 212.234375 297.25 244.042969 297.25 C 275.84375 297.25 307.640625 312.0625 327.683594 341.703125 C 335.738281 353.589844 346.453125 363.101562 358.757812 369.625 C 371.050781 376.15625 384.902344 379.722656 399.25 379.722656 C 429.804688 379.722656 454.734375 364.71875 469.867188 343.085938 C 506.34375 399.792969 466.027344 476.3125 397 476.3125 Z M 397 476.3125 " clip-rule="nonzero"></path></clipPath><clipPath id="c8f991c47c"><path d="M 0 0.25 L 483.617188 0.25 L 483.617188 179.492188 L 0 179.492188 Z M 0 0.25 " clip-rule="nonzero"></path></clipPath><clipPath id="25c5874af6"><path d="M 397 179.3125 C 382.652344 179.3125 368.800781 175.75 356.507812 169.21875 C 344.203125 162.695312 333.488281 153.183594 325.433594 141.292969 C 305.390625 111.65625 273.59375 96.84375 241.796875 96.84375 C 209.984375 96.84375 178.1875 111.65625 158.144531 141.292969 C 150.109375 153.183594 139.386719 162.695312 127.09375 169.21875 C 114.789062 175.75 100.925781 179.3125 86.589844 179.3125 C 35.398438 179.3125 0 137.226562 0 92.34375 C 0 75.507812 5.089844 58.453125 16.089844 42.902344 C 30.925781 66.328125 56.726562 82.722656 88.839844 82.722656 C 103.175781 82.722656 117.039062 79.15625 129.34375 72.625 C 141.636719 66.101562 152.359375 56.589844 160.394531 44.703125 C 180.4375 15.0625 212.234375 0.25 244.042969 0.25 C 275.84375 0.25 307.640625 15.0625 327.683594 44.703125 C 335.738281 56.589844 346.453125 66.101562 358.757812 72.625 C 371.050781 79.15625 384.902344 82.722656 399.25 82.722656 C 429.804688 82.722656 454.734375 67.71875 469.867188 46.085938 C 506.34375 102.792969 466.027344 179.3125 397 179.3125 Z M 397 179.3125 " clip-rule="nonzero"></path></clipPath><clipPath id="fd61a3f659"><rect x="0" width="484" y="0" height="180"></rect></clipPath><clipPath id="9fdc5b2881"><path d="M 15.738281 96.40625 L 469.996094 96.40625 L 469.996094 380.292969 L 15.738281 380.292969 Z M 15.738281 96.40625 " clip-rule="nonzero"></path></clipPath><clipPath id="d908c0ea21"><path d="M 469.996094 343.542969 C 454.851562 365.144531 429.914062 380.121094 399.34375 380.121094 C 384.992188 380.121094 371.132812 376.5625 358.835938 370.039062 C 346.527344 363.527344 335.808594 354.03125 327.75 342.160156 C 307.699219 312.566406 275.886719 297.777344 244.078125 297.777344 C 212.253906 297.777344 180.445312 312.566406 160.394531 342.160156 C 152.355469 354.03125 141.625 363.527344 129.328125 370.039062 C 117.019531 376.5625 103.152344 380.121094 88.808594 380.121094 C 56.679688 380.121094 30.765625 363.582031 15.917969 340.195312 C 16.390625 339.523438 16.886719 338.855469 17.378906 338.195312 L 172.636719 131.175781 C 189.941406 108.105469 215.878906 96.585938 241.824219 96.585938 C 267.761719 96.585938 293.699219 108.105469 311.003906 131.175781 L 466.273438 338.195312 C 467.589844 339.953125 468.832031 341.742188 469.996094 343.542969 Z M 469.996094 343.542969 " clip-rule="nonzero"></path></clipPath><clipPath id="bbca97c5fa"><path d="M 0.832031 0.554688 L 454.996094 0.554688 L 454.996094 284.292969 L 0.832031 284.292969 Z M 0.832031 0.554688 " clip-rule="nonzero"></path></clipPath><clipPath id="238870e2b2"><path d="M 454.996094 247.542969 C 439.851562 269.144531 414.914062 284.121094 384.34375 284.121094 C 369.992188 284.121094 356.132812 280.5625 343.835938 274.039062 C 331.527344 267.527344 320.808594 258.03125 312.75 246.160156 C 292.699219 216.566406 260.886719 201.777344 229.078125 201.777344 C 197.253906 201.777344 165.445312 216.566406 145.394531 246.160156 C 137.355469 258.03125 126.625 267.527344 114.328125 274.039062 C 102.019531 280.5625 88.152344 284.121094 73.808594 284.121094 C 41.679688 284.121094 15.765625 267.582031 0.917969 244.195312 C 1.390625 243.523438 1.886719 242.855469 2.378906 242.195312 L 157.636719 35.175781 C 174.941406 12.105469 200.878906 0.585938 226.824219 0.585938 C 252.761719 0.585938 278.699219 12.105469 296.003906 35.175781 L 451.273438 242.195312 C 452.589844 243.953125 453.832031 245.742188 454.996094 247.542969 Z M 454.996094 247.542969 " clip-rule="nonzero"></path></clipPath><clipPath id="1bf7dafc4d"><rect x="0" width="455" y="0" height="285"></rect></clipPath><clipPath id="f80e0b2f99"><path d="M 2.105469 0.121094 L 486 0.121094 L 486 343.445312 L 2.105469 343.445312 Z M 2.105469 0.121094 " clip-rule="nonzero"></path></clipPath><clipPath id="e7262172d7"><path d="M 174.816406 34.910156 L 19.523438 241.96875 C 7.429688 257.933594 2.105469 275.832031 2.105469 293.246094 C 2.105469 310.179688 6.945312 326.144531 15.652344 340.175781 C 16.136719 339.691406 16.621094 338.722656 17.105469 338.238281 L 172.398438 131.179688 C 189.8125 107.960938 215.9375 96.347656 241.578125 96.347656 C 267.703125 96.347656 293.828125 107.960938 310.757812 131.179688 L 466.050781 338.238281 C 467.503906 339.691406 468.953125 341.625 469.921875 343.5625 C 490.242188 314.535156 492.660156 274.378906 468.472656 241.96875 L 313.175781 34.910156 C 295.761719 11.6875 270.121094 0.078125 243.996094 0.078125 C 217.871094 0.078125 192.234375 11.6875 174.816406 34.910156 Z M 174.816406 34.910156 " clip-rule="nonzero"></path></clipPath></defs><g clip-path="url(#a39cdc6381)"><g clip-path="url(#f6aff129ce)"><g transform="matrix(1, 0, 0, 1, 0, 297)"><g clip-path="url(#fd61a3f659)"><g clip-path="url(#c8f991c47c)"><g clip-path="url(#25c5874af6)"><path fill="#00ffff" d="M 0 0.25 L 483.617188 0.25 L 483.617188 179.3125 L 0 179.3125 Z M 0 0.25 " fill-opacity="1" fill-rule="nonzero"></path></g></g></g></g></g></g><g clip-path="url(#9fdc5b2881)"><g clip-path="url(#d908c0ea21)"><g transform="matrix(1, 0, 0, 1, 15, 96)"><g clip-path="url(#1bf7dafc4d)"><g clip-path="url(#bbca97c5fa)"><g clip-path="url(#238870e2b2)"><path fill="#153cff" d="M 0.917969 0.585938 L 454.996094 0.585938 L 454.996094 284.113281 L 0.917969 284.113281 Z M 0.917969 0.585938 " fill-opacity="1" fill-rule="nonzero"></path></g></g></g></g></g></g><g clip-path="url(#f80e0b2f99)"><g clip-path="url(#e7262172d7)"><path fill="#ff6632" d="M 2.105469 0.121094 L 2.105469 343.445312 L 486.359375 343.445312 L 486.359375 0.121094 Z M 2.105469 0.121094 " fill-opacity="1" fill-rule="nonzero"></path></g></g></svg>