<svg xmlns="http://www.w3.org/2000/svg" xmlns:xlink="http://www.w3.org/1999/xlink" width="649" zoomAndPan="magnify" viewBox="0 0 486.75 478.499986" height="638" preserveAspectRatio="xMidYMid meet" version="1.0"><defs><clipPath id="176f7866a6"><path d="M 0.128906 0 L 486.371094 0 L 486.371094 478 L 0.128906 478 Z M 0.128906 0 " clip-rule="nonzero"></path></clipPath><clipPath id="24aa56dc8a"><path d="M 2.234375 0 L 486 0 L 486 343.140625 L 2.234375 343.140625 Z M 2.234375 0 " clip-rule="nonzero"></path></clipPath><clipPath id="87211684bf"><path d="M 174.851562 34.769531 L 19.640625 241.714844 C 7.554688 257.671875 2.234375 275.5625 2.234375 292.96875 C 2.234375 309.894531 7.070312 325.847656 15.773438 339.871094 C 16.257812 339.386719 16.742188 338.421875 17.226562 337.9375 L 172.433594 130.988281 C 189.84375 107.78125 215.953125 96.175781 241.578125 96.175781 C 267.6875 96.175781 293.800781 107.78125 310.722656 130.988281 L 465.933594 337.9375 C 467.382812 339.386719 468.835938 341.320312 469.800781 343.257812 C 490.109375 314.246094 492.527344 274.113281 468.351562 241.714844 L 313.140625 34.769531 C 295.734375 11.558594 270.105469 -0.046875 243.996094 -0.046875 C 217.886719 -0.046875 192.261719 11.558594 174.851562 34.769531 Z M 174.851562 34.769531 " clip-rule="nonzero"></path></clipPath><clipPath id="1c4ed8e0aa"><path d="M 0.128906 298.308594 L 483.488281 298.308594 L 483.488281 477.457031 L 0.128906 477.457031 Z M 0.128906 298.308594 " clip-rule="nonzero"></path></clipPath><clipPath id="b5d6a110e8"><path d="M 396.917969 477.277344 C 382.578125 477.277344 368.734375 473.714844 356.445312 467.1875 C 344.148438 460.667969 333.441406 451.160156 325.390625 439.277344 C 305.359375 409.65625 273.578125 394.847656 241.796875 394.847656 C 210.003906 394.847656 178.222656 409.65625 158.191406 439.277344 C 150.160156 451.160156 139.441406 460.667969 127.15625 467.1875 C 114.855469 473.714844 101 477.277344 86.675781 477.277344 C 35.507812 477.277344 0.128906 435.210938 0.128906 390.351562 C 0.128906 373.523438 5.214844 356.480469 16.207031 340.9375 C 31.039062 364.351562 56.824219 380.734375 88.921875 380.734375 C 103.25 380.734375 117.105469 377.175781 129.402344 370.644531 C 141.691406 364.125 152.410156 354.621094 160.4375 342.738281 C 180.472656 313.113281 212.253906 298.308594 244.042969 298.308594 C 275.824219 298.308594 307.605469 313.113281 327.640625 342.738281 C 335.691406 354.621094 346.398438 364.125 358.695312 370.644531 C 370.984375 377.175781 384.828125 380.734375 399.164062 380.734375 C 429.707031 380.734375 454.621094 365.742188 469.75 344.121094 C 506.203125 400.796875 465.910156 477.277344 396.917969 477.277344 Z M 396.917969 477.277344 " clip-rule="nonzero"></path></clipPath><clipPath id="4e18a3ae2a"><path d="M 0.128906 0.308594 L 483.488281 0.308594 L 483.488281 179.339844 L 0.128906 179.339844 Z M 0.128906 0.308594 " clip-rule="nonzero"></path></clipPath><clipPath id="d24cfdc570"><path d="M 396.917969 179.277344 C 382.578125 179.277344 368.734375 175.714844 356.445312 169.1875 C 344.148438 162.667969 333.441406 153.160156 325.390625 141.277344 C 305.359375 111.65625 273.578125 96.847656 241.796875 96.847656 C 210.003906 96.847656 178.222656 111.65625 158.191406 141.277344 C 150.160156 153.160156 139.441406 162.667969 127.15625 169.1875 C 114.855469 175.714844 101 179.277344 86.675781 179.277344 C 35.507812 179.277344 0.128906 137.210938 0.128906 92.351562 C 0.128906 75.523438 5.214844 58.480469 16.207031 42.9375 C 31.039062 66.351562 56.824219 82.734375 88.921875 82.734375 C 103.25 82.734375 117.105469 79.175781 129.402344 72.644531 C 141.691406 66.125 152.410156 56.621094 160.4375 44.738281 C 180.472656 15.113281 212.253906 0.308594 244.042969 0.308594 C 275.824219 0.308594 307.605469 15.113281 327.640625 44.738281 C 335.691406 56.621094 346.398438 66.125 358.695312 72.644531 C 370.984375 79.175781 384.828125 82.734375 399.164062 82.734375 C 429.707031 82.734375 454.621094 67.742188 469.75 46.121094 C 506.203125 102.796875 465.910156 179.277344 396.917969 179.277344 Z M 396.917969 179.277344 " clip-rule="nonzero"></path></clipPath><clipPath id="d9bd27bb78"><rect x="0" width="484" y="0" height="180"></rect></clipPath></defs><g clip-path="url(#24aa56dc8a)"><g clip-path="url(#87211684bf)"><path fill="#ffffff" d="M 2.234375 0 L 2.234375 343.140625 L 486.230469 343.140625 L 486.230469 0 Z M 2.234375 0 " fill-opacity="1" fill-rule="nonzero"></path></g></g><g clip-path="url(#1c4ed8e0aa)"><g clip-path="url(#b5d6a110e8)"><g transform="matrix(1, 0, 0, 1, 0, 298)"><g clip-path="url(#d9bd27bb78)"><g clip-path="url(#4e18a3ae2a)"><g clip-path="url(#d24cfdc570)"><path fill="#ffffff" d="M 0.128906 0.308594 L 483.488281 0.308594 L 483.488281 179.277344 L 0.128906 179.277344 Z M 0.128906 0.308594 " fill-opacity="1" fill-rule="nonzero"></path></g></g></g></g></g></g></svg>